<svg width="440" height="157" viewBox="0 0 440 157" fill="none" xmlns="http://www.w3.org/2000/svg">
<path d="M44.2623 151.201H62.7599V156.043H0V151.201H18.4977V5.06204H0V0H126.5L112.087 42.6972H109.665C101.517 5.28213 90.5064 5.06204 57.4749 5.06204H44.2623V73.9498H50.8686C57.6951 73.9498 68.7056 73.2895 73.5503 66.6869C77.0736 61.8449 77.2938 50.4003 77.7342 45.5584H81.0374V109.164H77.9545C77.7342 105.202 78.8353 85.3944 67.3844 80.5525C65.8429 79.8922 60.5578 79.452 50.8686 79.452H44.2623V151.201Z" fill="white"/>
<path d="M129.751 0H135.697L187.446 151.201H198.457V156.043H140.101V151.201H160.36L145.166 105.643H99.1419L83.9474 151.201H103.766V156.043H62.587V151.201H77.1209L129.751 0ZM100.683 100.801H143.404L121.824 35.8745L100.683 100.801Z" fill="white"/>
<path d="M185.812 0H250.113C260.683 0.220099 291.513 0.2201 302.083 22.229C306.047 30.5923 306.707 46.2186 299 56.3427C288.43 69.9882 268.611 73.0695 259.803 74.6101C292.394 80.7726 299.22 98.1596 299.881 124.13V130.953C299.881 134.034 298.715 147.479 304 151C307.523 153.641 313.314 152.962 319.48 151.201V156.043C304.13 156.043 296.5 157.5 285 151C272.668 142.196 272.795 126.551 272.795 117.968V110.264C272.795 104.102 272.355 91.1167 264.207 82.7534C257.16 75.4904 249.453 76.5909 233.377 76.5909H230.074V151.201H248.572V156.043H185.812V151.201H204.31V5.06204H185.812V0ZM230.074 70.6485H234.478C252.536 70.6485 266.409 71.5288 274.777 57.4432C279.621 49.0798 279.401 26.4106 274.116 17.6071C265.528 3.30134 254.077 5.06204 230.074 5.06204V70.6485Z" fill="white"/>
<path d="M371.294 0H377.24L428.989 151.201H440V156.043H381.644V151.201H401.904L386.709 105.643H340.685L325.491 151.201H345.31V156.043H304.13V151.201H318.664L371.294 0ZM342.227 100.801H384.947L363.367 35.8745L342.227 100.801Z" fill="white"/>
</svg>
