<svg width="199" height="157" viewBox="0 0 199 157" fill="none" xmlns="http://www.w3.org/2000/svg">
<path d="M44.2623 151.201H62.7599V156.043H0V151.201H18.4977V5.06204H0V0H126.5L112.087 42.6972H109.665C101.517 5.28213 90.5064 5.06204 57.4749 5.06204H44.2623V73.9498H50.8686C57.6951 73.9498 68.7056 73.2895 73.5503 66.6869C77.0736 61.8449 77.2938 50.4003 77.7342 45.5584H81.0374V109.164H77.9545C77.7342 105.202 78.8353 85.3944 67.3844 80.5525C65.8429 79.8922 60.5578 79.452 50.8686 79.452H44.2623V151.201Z" fill="white"/>
<path d="M129.751 0H135.697L187.446 151.201H198.457V156.043H140.101V151.201H160.36L145.166 105.643H99.1419L83.9474 151.201H103.766V156.043H62.587V151.201H77.1209L129.751 0ZM100.683 100.801H143.404L121.824 35.8745L100.683 100.801Z" fill="white"/>
</svg>
