<svg width="90" height="90" viewBox="0 0 90 90" fill="none" xmlns="http://www.w3.org/2000/svg">
<rect width="90" height="90" rx="15" fill="white"/>
<path d="M50.2621 71.4946H33.3854L65.7092 17.4589L65.7094 17.4585L65.9506 17.0509L66.04 16.9H65.8646H26.2194H26.1194V17V33.7627V33.8627H26.2194H26.6399H26.7389L26.7399 33.7637C26.7777 29.6997 28.0227 25.635 30.6064 22.588C33.188 19.5435 37.1123 17.5076 42.5271 17.5076H55.4846L22.9142 71.9487L22.8236 72.1H23H67H67.1V72V55.9402V55.8402H67H66.5784H66.4792L66.4784 55.9394C66.4503 59.4789 65.3969 62.9255 63.2243 65.6758C61.0526 68.425 57.7581 70.4845 53.2359 71.2439C53.2358 71.244 53.2357 71.244 53.2356 71.244L52.9491 71.2902L52.3764 71.3608C52.0889 71.3956 51.806 71.4229 51.5255 71.4419L51.5245 71.4419C51.1016 71.4746 50.6826 71.4946 50.2621 71.4946Z" fill="black" stroke="white" stroke-width="0.2"/>
</svg>
