<svg width="10" height="10" viewBox="0 0 10 10"  xmlns="http://www.w3.org/2000/svg">
<path d="M1.27484e-05 4.73032C-0.0002123 5.91585 0.399332 7.06683 1.13407 7.99723C1.86882 8.92763 2.89582 9.58309 4.04912 9.85769C5.20241 10.1323 6.41461 10.01 7.4898 9.51049C8.56498 9.01103 9.44034 8.1636 9.97439 7.10517C9.99703 7.06045 10.0049 7.00971 9.99699 6.96021C9.98904 6.91072 9.96563 6.86501 9.93011 6.82964C9.8946 6.79426 9.8488 6.77103 9.79928 6.76327C9.74975 6.75551 9.69904 6.76362 9.65441 6.78644C8.98633 7.12383 8.24798 7.29857 7.49954 7.29641C6.68105 7.29656 5.87615 7.08719 5.16148 6.68822C4.44681 6.28926 3.84617 5.71398 3.41676 5.01718C2.98735 4.32037 2.74347 3.52524 2.70834 2.70751C2.67321 1.88977 2.848 1.07666 3.21606 0.345591C3.23888 0.300958 3.24699 0.250248 3.23923 0.200725C3.23147 0.151201 3.20824 0.105402 3.17286 0.069887C3.13749 0.0343718 3.09178 0.0109615 3.04229 0.00300832C2.99279 -0.00494488 2.94205 0.00296691 2.89733 0.0256108C2.02479 0.462956 1.29144 1.13489 0.779642 1.96595C0.267844 2.79702 -0.00213784 3.7543 1.27484e-05 4.73032Z" />
</svg>
