<svg width="9" height="11" viewBox="0 0 9 11"  xmlns="http://www.w3.org/2000/svg">
<path d="M5.05413 10.0691C4.59547 10.0691 4.14829 10.0118 3.7011 9.88568C2.39394 9.51876 1.30464 8.67026 0.651066 7.48923C-0.01398 6.3082 -0.174508 4.94371 0.192414 3.64802C0.719863 1.72168 2.34808 0.288389 4.33175 0.00173159C4.43495 -0.00973472 4.52668 0.0361305 4.56108 0.127861C4.59547 0.219591 4.57254 0.334254 4.50374 0.391586C3.7699 0.9993 3.24245 1.80194 2.99019 2.71925C2.30221 5.17303 3.74697 7.73002 6.18929 8.40653C6.81994 8.57853 7.46205 8.62439 8.0927 8.53266C8.19589 8.52119 8.28762 8.56706 8.32202 8.65879C8.35642 8.75052 8.33349 8.85372 8.26469 8.92252C7.34739 9.66782 6.21222 10.0691 5.05413 10.0691ZM3.6323 0.620912C2.17608 1.09103 1.02945 2.27206 0.6052 3.77415C0.272678 4.96664 0.42174 6.205 1.02945 7.28283C1.63717 8.36067 2.62327 9.12891 3.81577 9.46143C5.00826 9.79395 6.28102 9.63343 7.34739 9.02571C6.92313 9.01425 6.48741 8.95691 6.07463 8.84225C3.39151 8.09694 1.80916 5.29916 2.56594 2.60458C2.76087 1.85927 3.12779 1.18276 3.6323 0.620912Z" />
</svg>
