<svg width="14" height="14" viewBox="0 0 14 14"  xmlns="http://www.w3.org/2000/svg">
<path d="M6.16667 1.10744C6.16667 0.647198 6.53976 0.274103 7 0.274103C7.46024 0.274107 7.83333 0.647199 7.83333 1.10744L7.83333 6.16665L12.8925 6.16663C13.3528 6.16663 13.7259 6.53975 13.7259 6.99999C13.7259 7.46023 13.3528 7.83333 12.8926 7.83332L7.83332 7.8333L7.83336 12.8925C7.83336 13.3528 7.46025 13.7259 7 13.7259C6.53975 13.7259 6.16664 13.3528 6.16664 12.8925L6.16668 7.8333L1.10745 7.83332C0.647205 7.83333 0.274113 7.46024 0.274116 6.99999C0.274118 6.53975 0.647233 6.16663 1.10748 6.16663L6.16667 6.16664L6.16667 1.10744Z" />
</svg>
