<svg width="10" height="10" viewBox="0 0 10 10"  xmlns="http://www.w3.org/2000/svg">
<path fill-rule="evenodd" clip-rule="evenodd" d="M0.649994 5.64999H9.34999V9.99999H8.64999V6.34999H1.34999V9.99999H0.649994V5.64999Z" />
<path fill-rule="evenodd" clip-rule="evenodd" d="M4.99999 4.69999C3.78497 4.69999 2.79999 3.71501 2.79999 2.49999C2.79999 1.28496 3.78497 0.299988 4.99999 0.299988C6.21502 0.299988 7.19999 1.28496 7.19999 2.49999C7.19999 3.71501 6.21502 4.69999 4.99999 4.69999ZM4.99999 0.999988C4.17157 0.999988 3.49999 1.67156 3.49999 2.49999C3.49999 3.32841 4.17157 3.99999 4.99999 3.99999C5.82842 3.99999 6.49999 3.32841 6.49999 2.49999C6.49999 1.67156 5.82842 0.999988 4.99999 0.999988Z" />
</svg>
