<svg width="10" height="11" viewBox="0 0 10 11"  xmlns="http://www.w3.org/2000/svg">
<path fill-rule="evenodd" clip-rule="evenodd" d="M4.24767 7.7473L1.00018 10.9998L0.504822 10.5052L3.75231 7.2527L4.24767 7.7473Z" />
<path fill-rule="evenodd" clip-rule="evenodd" d="M6.06249 8.05C7.85051 8.05 9.29999 6.60052 9.29999 4.8125C9.29999 3.02448 7.85051 1.575 6.06249 1.575C4.27447 1.575 2.82499 3.02448 2.82499 4.8125C2.82499 6.60052 4.27447 8.05 6.06249 8.05ZM6.06249 8.75C8.23711 8.75 9.99999 6.98712 9.99999 4.8125C9.99999 2.63788 8.23711 0.875 6.06249 0.875C3.88787 0.875 2.12499 2.63788 2.12499 4.8125C2.12499 6.98712 3.88787 8.75 6.06249 8.75Z" />
</svg>
