<svg width="11" height="11" viewBox="0 0 11 11"  xmlns="http://www.w3.org/2000/svg">
<path fill-rule="evenodd" clip-rule="evenodd" d="M4.42691 7.67664L1.17942 10.9292L0.825592 10.5759L4.07308 7.32336L4.42691 7.67664Z" />
<path fill-rule="evenodd" clip-rule="evenodd" d="M7.06249 8.25C8.96097 8.25 10.5 6.71098 10.5 4.8125C10.5 2.91402 8.96097 1.375 7.06249 1.375C5.16401 1.375 3.62499 2.91402 3.62499 4.8125C3.62499 6.71098 5.16401 8.25 7.06249 8.25ZM7.06249 8.75C9.23711 8.75 11 6.98712 11 4.8125C11 2.63788 9.23711 0.875 7.06249 0.875C4.88787 0.875 3.12499 2.63788 3.12499 4.8125C3.12499 6.98712 4.88787 8.75 7.06249 8.75Z" />
</svg>
