<svg width="12" height="12" viewBox="0 0 12 12"  xmlns="http://www.w3.org/2000/svg">
<path d="M5.99997 3.2356C4.4759 3.2356 3.23258 4.4806 3.23258 6.00671C3.23258 7.53283 4.4759 8.77782 5.99997 8.77782C7.52404 8.77786 8.76736 7.53283 8.76736 5.99333C8.76736 4.46721 7.52404 3.2356 5.99997 3.2356ZM5.99997 8.60379C4.56948 8.60379 3.39301 7.43912 3.39301 5.99333C3.39301 4.56092 4.55611 3.38286 5.99997 3.38286C7.44383 3.38286 8.60693 4.54753 8.60693 5.99333C8.59357 7.43912 7.43046 8.60379 5.99997 8.60379ZM5.91976 1.91029V1.08032C5.91976 1.04014 5.95989 1.00001 5.99997 1.00001C6.04009 1.00001 6.08017 1.04019 6.08017 1.08032V1.91029C6.08017 1.95047 6.04005 1.99061 5.99997 1.99061C5.94648 1.99061 5.91976 1.95047 5.91976 1.91029ZM3.45986 1.77642C3.43314 1.73624 3.4465 1.68273 3.48658 1.66931C3.52671 1.64255 3.58015 1.65593 3.59355 1.69606L4.00798 2.41897C4.0347 2.45915 4.02134 2.51266 3.98126 2.52609C3.9679 2.53947 3.95454 2.53947 3.94113 2.53947C3.91441 2.53947 3.88765 2.52609 3.87429 2.49929L3.45986 1.77642ZM2.52403 3.99866C2.51067 4.02542 2.4839 4.03884 2.45718 4.03884C2.44382 4.03884 2.43046 4.03884 2.41706 4.02546L1.69512 3.61048C1.65499 3.58372 1.64163 3.54354 1.6684 3.50336C1.69512 3.46319 1.73524 3.44981 1.77537 3.47661L2.49731 3.89159C2.53739 3.90497 2.55075 3.95853 2.52403 3.99866ZM1.90906 6.08704H1.08021C1.04008 6.08704 1 6.04686 1 6.00672C1 5.96654 1.04012 5.92641 1.08021 5.92641H1.90906C1.94919 5.92641 1.98927 5.96659 1.98927 6.00672C1.98927 6.0469 1.94914 6.08704 1.90906 6.08704ZM2.52403 8.00137C2.55075 8.04155 2.53739 8.09507 2.49731 8.10849L1.77537 8.52348C1.76201 8.53685 1.74865 8.53685 1.73524 8.53685C1.70852 8.53685 1.68176 8.52347 1.6684 8.49667C1.64168 8.45649 1.65504 8.40298 1.69512 8.38956L2.41706 7.97457C2.45718 7.94782 2.51067 7.9612 2.52403 8.00137ZM4.02136 9.58104L3.60693 10.3039C3.59357 10.3307 3.56681 10.3441 3.54009 10.3441C3.52673 10.3441 3.51337 10.3441 3.49996 10.3307C3.45984 10.304 3.44648 10.2638 3.47324 10.2236L3.88767 9.50068C3.91439 9.46051 3.95452 9.44713 3.99464 9.47393C4.03472 9.50068 4.04813 9.54086 4.02136 9.58104ZM6.08019 10.0897V10.9197C6.08019 10.9599 6.04007 11 5.99999 11C5.95986 11 5.91978 10.9598 5.91978 10.9197V10.0897C5.91978 10.0495 5.95991 10.0094 5.99999 10.0094C6.04007 10.0094 6.08019 10.0496 6.08019 10.0897ZM8.52673 10.2236C8.55345 10.2638 8.54009 10.3173 8.50001 10.3307C8.4866 10.3441 8.47324 10.3441 8.45988 10.3441C8.43316 10.3441 8.4064 10.3307 8.39304 10.3039L7.97861 9.581C7.95189 9.54082 7.96525 9.48731 8.00533 9.47388C8.04545 9.44713 8.09889 9.46051 8.1123 9.50064L8.52673 10.2236ZM10.3315 8.51006C10.3182 8.53681 10.2914 8.55024 10.2647 8.55024C10.2513 8.55024 10.238 8.55024 10.2246 8.53686L9.50264 8.12187C9.46251 8.09512 9.44915 8.05494 9.47592 8.01476C9.50264 7.97458 9.54276 7.9612 9.58289 7.988L10.3048 8.40299C10.3449 8.41632 10.3583 8.46988 10.3315 8.51006ZM11 5.9933C11 6.03348 10.9599 6.07362 10.9198 6.07362H10.0909C10.0508 6.07362 10.0107 6.03344 10.0107 5.9933C10.0107 5.95312 10.0508 5.91299 10.0909 5.91299H10.9197C10.9599 5.91299 11 5.95313 11 5.9933ZM9.46256 3.99864C9.43584 3.95846 9.4492 3.90495 9.48928 3.89153L10.2112 3.47654C10.2513 3.44979 10.3048 3.46316 10.3182 3.5033C10.3449 3.54348 10.3315 3.59699 10.2915 3.61041L9.56953 4.0254C9.55617 4.03878 9.54281 4.03878 9.52941 4.03878C9.516 4.03882 9.48928 4.02544 9.46256 3.99864ZM7.96523 2.41898L8.37966 1.69607C8.40638 1.65589 8.4465 1.64251 8.48663 1.66931C8.52675 1.69607 8.54011 1.73625 8.51335 1.77642L8.09892 2.49933C8.08556 2.52609 8.05879 2.53951 8.03207 2.53951C8.01871 2.53951 8.00535 2.53951 7.99195 2.52613C7.96523 2.49929 7.95187 2.45911 7.96523 2.41898Z" />
<path fill-rule="evenodd" clip-rule="evenodd" d="M5.83873 0.919082C5.8748 0.882973 5.93109 0.850006 5.99998 0.850006C6.06891 0.850006 6.12522 0.883008 6.16128 0.919137C6.19735 0.955271 6.23018 1.01155 6.23018 1.08032V1.91029C6.23018 1.97911 6.19732 2.0354 6.16123 2.07153C6.12515 2.10764 6.06886 2.1406 5.99998 2.1406C5.93249 2.1406 5.87086 2.11379 5.82764 2.06509C5.78688 2.01918 5.76977 1.96225 5.76977 1.91029V1.08032C5.76977 1.0115 5.80263 0.95521 5.83873 0.919082ZM8.56985 1.54451C8.51907 1.51063 8.45474 1.49482 8.38864 1.51286C8.32614 1.52991 8.28227 1.57164 8.25476 1.613L7.82765 2.35737L7.82291 2.37159C7.78915 2.47302 7.82486 2.57089 7.88564 2.63196C7.94344 2.68964 8.01126 2.68962 8.03015 2.68952L8.03208 2.68951C8.10603 2.68951 8.18772 2.65234 8.23066 2.57115L8.64155 1.85439C8.67306 1.80443 8.68718 1.74225 8.66981 1.67845C8.65282 1.61601 8.61121 1.57209 8.56985 1.54451ZM3.72938 1.63138C3.67306 1.49745 3.51947 1.4828 3.42238 1.53329C3.28159 1.59218 3.27235 1.75816 3.33134 1.85382L3.74254 2.57106C3.78553 2.65244 3.86733 2.68946 3.94114 2.68946L3.94309 2.68947C3.9588 2.68956 4.00841 2.68984 4.05796 2.65643C4.18676 2.59318 4.19371 2.43432 4.13652 2.34157L3.72938 1.63138ZM3.08258 6.00671C3.08258 4.39794 4.39287 3.0856 5.99998 3.0856C7.60613 3.0856 8.91737 4.38361 8.91737 5.99332C8.91737 7.61501 7.60755 8.92786 5.99997 8.92782C4.39287 8.92782 3.08258 7.61548 3.08258 6.00671ZM5.99998 3.53286C4.63965 3.53286 3.54301 4.64307 3.54301 5.99332C3.54301 7.35597 4.65202 8.45379 5.99998 8.45379C7.34644 8.45379 8.44394 7.35732 8.45694 5.99266C8.45658 4.62982 7.36058 3.53286 5.99998 3.53286ZM10.4543 3.43924C10.3955 3.29838 10.2295 3.28882 10.1337 3.34811L9.42447 3.75577C9.28145 3.81607 9.27483 3.98721 9.33766 4.0817L9.34587 4.09405L9.35634 4.10455C9.37817 4.12644 9.40205 4.14499 9.42651 4.15898C9.44547 4.16982 9.48322 4.18879 9.52941 4.18877L9.53136 4.18878C9.5481 4.18888 9.60331 4.18919 9.65595 4.14874L10.3563 3.74617C10.4902 3.68972 10.5045 3.53615 10.4543 3.43924ZM9.92965 5.83206C9.96572 5.79596 10.022 5.76299 10.0909 5.76299H10.9198C10.9886 5.76299 11.0449 5.79592 11.081 5.83204C11.1171 5.86818 11.15 5.92448 11.15 5.9933C11.15 6.06212 11.1171 6.11841 11.081 6.15454C11.045 6.19065 10.9887 6.22362 10.9198 6.22362H10.0909C10.022 6.22362 9.96566 6.19061 9.92959 6.15448C9.89352 6.11835 9.86069 6.06207 9.86069 5.9933C9.86069 5.92449 9.89355 5.86819 9.92965 5.83206ZM0.918961 5.84548C0.955033 5.80937 1.01133 5.77641 1.08021 5.77641H1.90907C1.978 5.77641 2.03431 5.80941 2.07038 5.84554C2.10645 5.88167 2.13927 5.93795 2.13927 6.00672C2.13927 6.07554 2.10641 6.13183 2.07032 6.16796C2.03425 6.20407 1.97795 6.23703 1.90907 6.23703H1.08021C1.01128 6.23703 0.954972 6.20403 0.918905 6.1679C0.882833 6.13177 0.850006 6.07549 0.850006 6.00672C0.850006 5.9379 0.882868 5.88161 0.918961 5.84548ZM2.66017 7.93742C2.60149 7.79634 2.43529 7.78691 2.33951 7.84614L1.6303 8.2538C1.49158 8.31229 1.48118 8.47507 1.53803 8.57102C1.58137 8.65061 1.66222 8.68685 1.73525 8.68685L1.7372 8.68686C1.75394 8.68695 1.80915 8.68727 1.86178 8.64682L2.56213 8.24424C2.69596 8.18782 2.71036 8.03433 2.66017 7.93742ZM4.07796 9.34919C4.02717 9.31526 3.96279 9.29943 3.89665 9.31748C3.83416 9.33453 3.79028 9.37626 3.76278 9.41762L3.34505 10.1456C3.31354 10.1956 3.29942 10.2578 3.31679 10.3216C3.33234 10.3787 3.36852 10.4204 3.40625 10.4481C3.461 10.4945 3.52059 10.4942 3.53816 10.4941L3.54009 10.4941C3.61388 10.4941 3.69567 10.4571 3.73867 10.3758L4.14957 9.65901C4.1811 9.609 4.19517 9.5468 4.1778 9.48302C4.16081 9.42066 4.11926 9.37677 4.07796 9.34919ZM8.24812 9.43596C8.1918 9.30202 8.03821 9.28737 7.94113 9.33787C7.80034 9.39676 7.7911 9.56275 7.85009 9.65841L8.2613 10.3757C8.30428 10.4571 8.38609 10.4941 8.45989 10.4941L8.46182 10.4941C8.47757 10.4942 8.5271 10.4944 8.57663 10.4611C8.7055 10.3979 8.71247 10.239 8.65526 10.1462L8.24812 9.43596ZM5.83874 9.92848C5.87482 9.89238 5.93111 9.85941 5.99999 9.85941C6.06893 9.85941 6.12522 9.89243 6.16126 9.92852C6.19732 9.96462 6.2302 10.0209 6.2302 10.0897V10.9197C6.2302 10.9885 6.19734 11.0448 6.16124 11.0809C6.12517 11.117 6.06888 11.15 5.99999 11.15C5.93106 11.15 5.87475 11.117 5.83869 11.0809C5.80261 11.0447 5.76979 10.9885 5.76979 10.9197V10.0897C5.76979 10.0209 5.80265 9.96461 5.83874 9.92848Z" />
<path fill-rule="evenodd" clip-rule="evenodd" d="M3.31988 1.68044C3.33306 1.63114 3.36533 1.57444 3.42499 1.54C3.48468 1.50553 3.54995 1.50596 3.59925 1.51921C3.64855 1.53247 3.70512 1.5648 3.73951 1.62435L4.15449 2.34313C4.1889 2.40273 4.18859 2.46791 4.17539 2.51724C4.16221 2.56655 4.12994 2.62325 4.07028 2.65769C4.01184 2.69143 3.94506 2.69902 3.88328 2.67846C3.82503 2.65908 3.78174 2.61833 3.75576 2.57333L3.34078 1.85456C3.30637 1.79496 3.30668 1.72978 3.31988 1.68044ZM5.99782 0.856518C5.9369 0.852565 5.87328 0.871045 5.82505 0.919715C5.77946 0.965729 5.76233 1.02381 5.75918 1.07338L5.76148 1.93158L5.76449 1.94626C5.78596 2.05099 5.86583 2.11789 5.949 2.14038C6.0279 2.16143 6.08661 2.12751 6.10292 2.11797L6.10459 2.117C6.16864 2.08003 6.2208 2.00699 6.21738 1.91521L6.21485 1.08903C6.21716 1.03001 6.19829 0.969106 6.15135 0.92253C6.10542 0.876954 6.04743 0.859723 5.99782 0.856518ZM1.84928 3.35199C1.73354 3.26416 1.5932 3.32826 1.53437 3.42054C1.44188 3.54193 1.51687 3.6903 1.61579 3.74365L2.33052 4.15919C2.40844 4.20818 2.49779 4.19934 2.56171 4.16243L2.5634 4.16147C2.57705 4.15369 2.62015 4.12913 2.64636 4.07542C2.72628 3.95624 2.65287 3.81519 2.55697 3.76346L1.84928 3.35199ZM3.4768 7.46453C2.67242 6.0713 3.15099 4.27963 4.54278 3.47608C5.93376 2.673 7.71832 3.14149 8.52318 4.53555C9.33402 5.93996 8.85612 7.73184 7.46389 8.53559C6.0721 9.33914 4.28119 8.85777 3.4768 7.46453ZM4.76641 3.86342C3.58834 4.54358 3.19372 6.05337 3.86885 7.22272C4.55017 8.40281 6.05951 8.79904 7.22688 8.12507C8.39295 7.45183 8.79518 5.95351 8.1241 4.76518C7.44238 3.58511 5.94473 3.18312 4.76641 3.86342ZM8.57714 1.55519C8.45583 1.46258 8.30728 1.5373 8.25391 1.63658L7.84356 2.34422C7.74986 2.46795 7.82969 2.61947 7.93136 2.66989L7.94464 2.67647L7.95895 2.68033C7.98881 2.68838 8.01876 2.6925 8.04694 2.69239C8.06878 2.6923 8.11095 2.68985 8.15095 2.66674L8.15264 2.66577C8.16718 2.65748 8.21516 2.63015 8.24052 2.5688L8.64575 1.86999C8.73346 1.75417 8.66912 1.61399 8.57714 1.55519ZM9.31921 3.88975C9.33239 3.84044 9.36466 3.78375 9.42432 3.74931L10.1421 3.33488C10.2018 3.30044 10.267 3.30081 10.3163 3.31404C10.3657 3.32728 10.4223 3.35961 10.4567 3.41921C10.4911 3.47881 10.4908 3.54399 10.4776 3.59332C10.4644 3.64263 10.4321 3.69933 10.3725 3.73377L9.65463 4.14822C9.59493 4.18269 9.52967 4.18226 9.48037 4.169C9.43106 4.15575 9.3745 4.12342 9.34011 4.06386C9.3057 4.00427 9.30602 3.93909 9.31921 3.88975ZM1.52244 8.40671C1.53562 8.35741 1.56789 8.30071 1.62755 8.26627L2.34536 7.85184C2.40505 7.81737 2.47032 7.8178 2.51962 7.83106C2.56893 7.84431 2.62549 7.87664 2.65988 7.93619C2.69429 7.99579 2.69397 8.06097 2.68078 8.11031C2.66759 8.15961 2.63533 8.21631 2.57567 8.25075L1.85786 8.66518C1.79816 8.69965 1.7329 8.69922 1.6836 8.68597C1.63429 8.67271 1.57772 8.64038 1.54334 8.58083C1.50893 8.52123 1.50924 8.45605 1.52244 8.40671ZM4.07633 9.34778C3.95498 9.25494 3.80633 9.32988 3.75299 9.42906L3.34264 10.1367C3.25175 10.2567 3.32413 10.4029 3.42134 10.4576C3.49866 10.5048 3.5868 10.4958 3.65005 10.4593L3.65174 10.4583C3.66628 10.45 3.71426 10.4227 3.73961 10.3613L4.14485 9.66252C4.23253 9.54674 4.16826 9.40661 4.07633 9.34778ZM6.01006 9.86152C5.94911 9.85753 5.88545 9.876 5.83719 9.92471C5.79159 9.97072 5.77446 10.0288 5.77132 10.0784L5.77356 10.9177C5.77125 10.9767 5.79012 11.0376 5.83706 11.0842C5.8791 11.1259 5.93125 11.1439 5.97783 11.1491C6.04842 11.1619 6.09987 11.1318 6.11504 11.1229L6.1167 11.122C6.18061 11.0851 6.23362 11.0116 6.2302 10.9197L6.22699 10.094C6.22929 10.0349 6.21038 9.97404 6.16344 9.9275C6.11755 9.88198 6.05961 9.86475 6.01006 9.86152ZM9.66492 7.85158C9.54917 7.76375 9.40883 7.82785 9.35 7.92013C9.25752 8.04152 9.33251 8.18989 9.43143 8.24324L10.1462 8.65882C10.2241 8.7078 10.3135 8.69896 10.3774 8.66206L10.379 8.6611C10.3927 8.6533 10.4358 8.62877 10.462 8.57511C10.542 8.45592 10.4685 8.31482 10.3726 8.26309L9.66492 7.85158ZM7.82459 9.48281C7.83778 9.4335 7.87005 9.3768 7.9297 9.34236C7.9894 9.30789 8.05467 9.30834 8.10392 9.32158C8.1532 9.33482 8.20981 9.36712 8.24422 9.42671L8.65921 10.1455C8.69362 10.2051 8.6933 10.2703 8.68011 10.3196C8.66692 10.3689 8.63465 10.4256 8.575 10.46C8.5153 10.4945 8.45004 10.4941 8.40074 10.4808C8.35143 10.4676 8.29568 10.4352 8.2613 10.3757L7.8455 9.65692C7.81109 9.59732 7.8114 9.53214 7.82459 9.48281Z" />
</svg>
