<svg width="10" height="11" viewBox="0 0 10 11"  xmlns="http://www.w3.org/2000/svg">
<path fill-rule="evenodd" clip-rule="evenodd" d="M2.64999 4.99999C2.64999 3.70212 3.70212 2.64999 4.99999 2.64999C6.29786 2.64999 7.34999 3.70212 7.34999 4.99999V11H6.64999V4.99999C6.64999 4.08872 5.91126 3.34999 4.99999 3.34999C4.08872 3.34999 3.34999 4.08872 3.34999 4.99999V11H2.64999V4.99999Z" />
<path fill-rule="evenodd" clip-rule="evenodd" d="M0.899994 4.74999C0.899994 2.48563 2.73563 0.649994 4.99999 0.649994C7.26436 0.649994 9.09999 2.48563 9.09999 4.74999V5.99999H8.39999V4.74999C8.39999 2.87223 6.87776 1.34999 4.99999 1.34999C3.12223 1.34999 1.59999 2.87223 1.59999 4.74999V5.99999H0.899994V4.74999Z" />
</svg>
