<svg width="9" height="10" viewBox="0 0 9 10"  xmlns="http://www.w3.org/2000/svg">
<path d="M7.48672 9.74295H1.51331C1.47591 9.74295 1.44005 9.72809 1.4136 9.70165C1.38715 9.6752 1.3723 9.63933 1.3723 9.60194V3.38034C1.3723 3.34294 1.38715 3.30707 1.4136 3.28063C1.44005 3.25418 1.47591 3.23932 1.51331 3.23932H7.48672C7.52412 3.23932 7.55999 3.25418 7.58643 3.28063C7.61288 3.30707 7.62774 3.34294 7.62774 3.38034V9.60194C7.62774 9.63933 7.61288 9.6752 7.58643 9.70165C7.55999 9.72809 7.52412 9.74295 7.48672 9.74295ZM1.65433 9.46092H7.34571V3.52136H1.65433V9.46092Z" />
<path fill-rule="evenodd" clip-rule="evenodd" d="M7.48672 9.79295H1.51331C1.46265 9.79295 1.41407 9.77283 1.37824 9.737C1.34242 9.70118 1.3223 9.6526 1.3223 9.60194V3.38034C1.3223 3.32968 1.34242 3.28109 1.37824 3.24527C1.41407 3.20945 1.46265 3.18932 1.51331 3.18932H7.48672C7.53738 3.18932 7.58597 3.20945 7.62179 3.24527C7.65761 3.28109 7.67774 3.32968 7.67774 3.38034V9.60194C7.67774 9.6526 7.65761 9.70118 7.62179 9.737C7.58597 9.77283 7.53738 9.79295 7.48672 9.79295ZM7.34571 9.46092H1.65433V3.52136H7.34571V9.46092ZM7.29571 3.57136H1.70433V9.41092H7.29571V3.57136ZM1.51331 9.74295H7.48672C7.52412 9.74295 7.55999 9.72809 7.58643 9.70165C7.61288 9.6752 7.62774 9.63933 7.62774 9.60194V3.38034C7.62774 3.34294 7.61288 3.30707 7.58643 3.28063C7.55999 3.25418 7.52412 3.23932 7.48672 3.23932H1.51331C1.47591 3.23932 1.44005 3.25418 1.4136 3.28063C1.38715 3.30707 1.3723 3.34294 1.3723 3.38034V9.60194C1.3723 9.63933 1.38715 9.6752 1.4136 9.70165C1.44005 9.72809 1.47591 9.74295 1.51331 9.74295Z" />
<path d="M7.859 3.52136H1.14103C1.10363 3.52136 1.06776 3.5065 1.04131 3.48006C1.01487 3.45361 1.00001 3.41774 1.00001 3.38034V2.13659C1.00001 2.09919 1.01487 2.06332 1.04131 2.03688C1.06776 2.01043 1.10363 1.99557 1.14103 1.99557H7.859C7.8964 1.99557 7.93226 2.01043 7.95871 2.03688C7.98516 2.06332 8.00001 2.09919 8.00001 2.13659V3.38034C8.00001 3.41774 7.98516 3.45361 7.95871 3.48006C7.93226 3.5065 7.8964 3.52136 7.859 3.52136ZM1.28063 3.23933H7.71798V2.2776H1.28204L1.28063 3.23933Z" />
<path fill-rule="evenodd" clip-rule="evenodd" d="M7.859 3.57136H1.14103C1.09037 3.57136 1.04178 3.55123 1.00596 3.51541C0.970137 3.47959 0.950012 3.431 0.950012 3.38034V2.13659C0.950012 2.08593 0.970137 2.03734 1.00596 2.00152C1.04178 1.9657 1.09037 1.94557 1.14103 1.94557H7.859C7.90966 1.94557 7.95824 1.9657 7.99407 2.00152C8.02989 2.03734 8.05001 2.08593 8.05001 2.13659V3.38034C8.05001 3.431 8.02989 3.47959 7.99407 3.51541C7.95824 3.55123 7.90966 3.57136 7.859 3.57136ZM7.71798 3.23933H1.28063L1.28204 2.2776H7.71798V3.23933ZM7.66798 2.3276H1.33197L1.33071 3.18933H7.66798V2.3276ZM1.14103 3.52136H7.859C7.8964 3.52136 7.93226 3.5065 7.95871 3.48006C7.98516 3.45361 8.00001 3.41774 8.00001 3.38034V2.13659C8.00001 2.09919 7.98516 2.06332 7.95871 2.03688C7.93226 2.01043 7.8964 1.99557 7.859 1.99557H1.14103C1.10363 1.99557 1.06776 2.01043 1.04131 2.03688C1.01487 2.06332 1.00001 2.09919 1.00001 2.13659V3.38034C1.00001 3.41774 1.01487 3.45361 1.04131 3.48006C1.06776 3.5065 1.10363 3.52136 1.14103 3.52136Z" />
<path d="M6.24156 2.27761H2.75848C2.72108 2.27761 2.68521 2.26275 2.65876 2.23631C2.63232 2.20986 2.61746 2.174 2.61746 2.1366V1.14103C2.61746 1.10363 2.63232 1.06776 2.65876 1.04131C2.68521 1.01487 2.72108 1.00001 2.75848 1.00001H6.24156C6.27895 1.00001 6.31482 1.01487 6.34127 1.04131C6.36771 1.06776 6.38257 1.10363 6.38257 1.14103V2.1366C6.38257 2.174 6.36771 2.20986 6.34127 2.23631C6.31482 2.26275 6.27895 2.27761 6.24156 2.27761ZM2.89808 1.99558H6.10054V1.28204H2.89949L2.89808 1.99558Z" />
<path fill-rule="evenodd" clip-rule="evenodd" d="M6.24156 2.32761H2.75848C2.70782 2.32761 2.65923 2.30749 2.62341 2.27166C2.58759 2.23584 2.56746 2.18726 2.56746 2.1366V1.14103C2.56746 1.09037 2.58759 1.04178 2.62341 1.00596C2.65923 0.970137 2.70782 0.950012 2.75848 0.950012H6.24156C6.29222 0.950012 6.3408 0.970137 6.37662 1.00596C6.41245 1.04178 6.43257 1.09037 6.43257 1.14103V2.1366C6.43257 2.18726 6.41245 2.23584 6.37662 2.27166C6.3408 2.30749 6.29222 2.32761 6.24156 2.32761ZM6.10054 1.99558H2.89808L2.89949 1.28204H6.10054V1.99558ZM6.05054 1.33204H2.94939L2.94818 1.94558H6.05054V1.33204ZM2.75848 2.27761H6.24156C6.27895 2.27761 6.31482 2.26275 6.34127 2.23631C6.36771 2.20986 6.38257 2.174 6.38257 2.1366V1.14103C6.38257 1.10363 6.36771 1.06776 6.34127 1.04131C6.31482 1.01487 6.27895 1.00001 6.24156 1.00001H2.75848C2.72108 1.00001 2.68521 1.01487 2.65876 1.04131C2.63232 1.06776 2.61746 1.10363 2.61746 1.14103V2.1366C2.61746 2.174 2.63232 2.20986 2.65876 2.23631C2.68521 2.26275 2.72108 2.27761 2.75848 2.27761Z" />
<path d="M2.63297 8.62331C2.59557 8.62331 2.5597 8.60845 2.53326 8.58201C2.50681 8.55556 2.49195 8.51969 2.49195 8.48229V4.50002C2.49195 4.46262 2.50681 4.42676 2.53326 4.40031C2.5597 4.37386 2.59557 4.35901 2.63297 4.35901C2.67037 4.35901 2.70624 4.37386 2.73268 4.40031C2.75913 4.42676 2.77398 4.46262 2.77398 4.50002V8.48229C2.77398 8.51969 2.75913 8.55556 2.73268 8.58201C2.70624 8.60845 2.67037 8.62331 2.63297 8.62331Z" />
<path fill-rule="evenodd" clip-rule="evenodd" d="M2.63297 8.67331C2.58231 8.67331 2.53372 8.65319 2.4979 8.61736C2.46208 8.58154 2.44195 8.53296 2.44195 8.4823V4.50002C2.44195 4.44936 2.46208 4.40078 2.4979 4.36495C2.53372 4.32913 2.58231 4.30901 2.63297 4.30901C2.68363 4.30901 2.73221 4.32913 2.76804 4.36495C2.80386 4.40078 2.82398 4.44936 2.82398 4.50002V8.4823C2.82398 8.53296 2.80386 8.58154 2.76804 8.61736C2.73221 8.65319 2.68363 8.67331 2.63297 8.67331ZM2.53326 8.58201C2.5597 8.60845 2.59557 8.62331 2.63297 8.62331C2.67037 8.62331 2.70624 8.60845 2.73268 8.58201C2.75913 8.55556 2.77398 8.51969 2.77398 8.48229V4.50002C2.77398 4.46262 2.75913 4.42676 2.73268 4.40031C2.70624 4.37386 2.67037 4.35901 2.63297 4.35901C2.59557 4.35901 2.5597 4.37386 2.53326 4.40031C2.50681 4.42676 2.49195 4.46262 2.49195 4.50002V8.48229C2.49195 8.51969 2.50681 8.55556 2.53326 8.58201Z" />
<path d="M3.87813 8.62331C3.84073 8.62331 3.80487 8.60845 3.77842 8.58201C3.75198 8.55556 3.73712 8.51969 3.73712 8.48229V4.50002C3.73712 4.46262 3.75198 4.42676 3.77842 4.40031C3.80487 4.37386 3.84073 4.35901 3.87813 4.35901C3.91553 4.35901 3.9514 4.37386 3.97785 4.40031C4.00429 4.42676 4.01915 4.46262 4.01915 4.50002V8.48229C4.01915 8.51969 4.00429 8.55556 3.97785 8.58201C3.9514 8.60845 3.91553 8.62331 3.87813 8.62331Z" />
<path fill-rule="evenodd" clip-rule="evenodd" d="M3.87813 8.67331C3.82747 8.67331 3.77889 8.65319 3.74307 8.61736C3.70724 8.58154 3.68712 8.53296 3.68712 8.4823V4.50002C3.68712 4.44936 3.70724 4.40078 3.74307 4.36495C3.77889 4.32913 3.82747 4.30901 3.87813 4.30901C3.92879 4.30901 3.97738 4.32913 4.0132 4.36495C4.04903 4.40078 4.06915 4.44936 4.06915 4.50002V8.4823C4.06915 8.53296 4.04903 8.58154 4.0132 8.61736C3.97738 8.65319 3.92879 8.67331 3.87813 8.67331ZM3.77842 8.58201C3.80487 8.60845 3.84073 8.62331 3.87813 8.62331C3.91553 8.62331 3.9514 8.60845 3.97785 8.58201C4.00429 8.55556 4.01915 8.51969 4.01915 8.48229V4.50002C4.01915 4.46262 4.00429 4.42676 3.97785 4.40031C3.9514 4.37386 3.91553 4.35901 3.87813 4.35901C3.84073 4.35901 3.80487 4.37386 3.77842 4.40031C3.75198 4.42676 3.73712 4.46262 3.73712 4.50002V8.48229C3.73712 8.51969 3.75198 8.55556 3.77842 8.58201Z" />
<path d="M5.12189 8.62331C5.08449 8.62331 5.04862 8.60845 5.02217 8.58201C4.99573 8.55556 4.98087 8.51969 4.98087 8.48229V4.50002C4.98087 4.46262 4.99573 4.42676 5.02217 4.40031C5.04862 4.37386 5.08449 4.35901 5.12189 4.35901C5.15929 4.35901 5.19515 4.37386 5.2216 4.40031C5.24804 4.42676 5.2629 4.46262 5.2629 4.50002V8.48229C5.2629 8.51969 5.24804 8.55556 5.2216 8.58201C5.19515 8.60845 5.15929 8.62331 5.12189 8.62331Z" />
<path fill-rule="evenodd" clip-rule="evenodd" d="M5.12189 8.67331C5.07123 8.67331 5.02264 8.65319 4.98682 8.61736C4.95099 8.58154 4.93087 8.53296 4.93087 8.4823V4.50002C4.93087 4.44936 4.95099 4.40078 4.98682 4.36495C5.02264 4.32913 5.07123 4.30901 5.12189 4.30901C5.17255 4.30901 5.22113 4.32913 5.25695 4.36495C5.29278 4.40078 5.3129 4.44936 5.3129 4.50002V8.4823C5.3129 8.53296 5.29278 8.58154 5.25695 8.61736C5.22113 8.65319 5.17255 8.67331 5.12189 8.67331ZM5.02217 8.58201C5.04862 8.60845 5.08449 8.62331 5.12189 8.62331C5.15929 8.62331 5.19515 8.60845 5.2216 8.58201C5.24804 8.55556 5.2629 8.51969 5.2629 8.48229V4.50002C5.2629 4.46262 5.24804 4.42676 5.2216 4.40031C5.19515 4.37386 5.15929 4.35901 5.12189 4.35901C5.08449 4.35901 5.04862 4.37386 5.02217 4.40031C4.99573 4.42676 4.98087 4.46262 4.98087 4.50002V8.48229C4.98087 8.51969 4.99573 8.55556 5.02217 8.58201Z" />
<path d="M6.36705 8.62331C6.32965 8.62331 6.29378 8.60845 6.26734 8.58201C6.24089 8.55556 6.22604 8.51969 6.22604 8.48229V4.50002C6.22604 4.46262 6.24089 4.42676 6.26734 4.40031C6.29378 4.37386 6.32965 4.35901 6.36705 4.35901C6.40445 4.35901 6.44032 4.37386 6.46676 4.40031C6.49321 4.42676 6.50807 4.46262 6.50807 4.50002V8.48229C6.50807 8.50081 6.50442 8.51915 6.49733 8.53626C6.49025 8.55337 6.47986 8.56891 6.46676 8.58201C6.45367 8.5951 6.43812 8.60549 6.42102 8.61258C6.40391 8.61966 6.38557 8.62331 6.36705 8.62331Z" />
<path fill-rule="evenodd" clip-rule="evenodd" d="M6.36705 8.67331C6.31639 8.67331 6.26781 8.65319 6.23198 8.61736C6.19616 8.58154 6.17604 8.53296 6.17604 8.4823V4.50002C6.17604 4.44936 6.19616 4.40078 6.23198 4.36495C6.26781 4.32913 6.31639 4.30901 6.36705 4.30901C6.41771 4.30901 6.4663 4.32913 6.50212 4.36495C6.53794 4.40078 6.55807 4.44936 6.55807 4.50002V8.4823C6.55807 8.50738 6.55313 8.53222 6.54353 8.55539C6.53393 8.57857 6.51986 8.59963 6.50212 8.61736C6.48438 8.6351 6.46332 8.64917 6.44015 8.65877C6.41697 8.66837 6.39214 8.67331 6.36705 8.67331ZM6.26734 8.58201C6.29378 8.60845 6.32965 8.62331 6.36705 8.62331C6.38557 8.62331 6.40391 8.61966 6.42102 8.61258C6.43812 8.60549 6.45367 8.5951 6.46676 8.58201C6.47986 8.56891 6.49025 8.55337 6.49733 8.53626C6.50442 8.51915 6.50807 8.50081 6.50807 8.48229V4.50002C6.50807 4.46262 6.49321 4.42676 6.46676 4.40031C6.44032 4.37386 6.40445 4.35901 6.36705 4.35901C6.32965 4.35901 6.29378 4.37386 6.26734 4.40031C6.24089 4.42676 6.22604 4.46262 6.22604 4.50002V8.48229C6.22604 8.51969 6.24089 8.55556 6.26734 8.58201Z" />
</svg>
